{"title":"Zanjeer 2013 1-3 DVDScrRip x264 AC3 5.1 (Line Audio) - Hindi","uid":8897337,"size":1565052370,"categoryP":"video","categoryS":"movies","magnet":"?xt=urn:btih:07fbf93fbe2e00cf2716dba1bd5c5bfe44e4dbdf&amp;dn=Zanjeer+2013+1-3+DVDScrRip+x264+AC3+5.1+%28Line+Audio%29+-+Hindi&amp;tr=udp%3A%2F%2Ftracker.openbittorrent.com%3A80&amp;tr=udp%3A%2F%2Fopen.demonii.com%3A1337&amp;tr=udp%3A%2F%2Ftracker.coppersurfer.tk%3A6969&amp;tr=udp%3A%2F%2Fexodus.desync.com%3A6969","seeders":1,"leechers":0,"uploader":"SJonam","files":1,"time":1378731987,"description":" &lt;a href=&quot;http://i.imgur.com/lJOgAo2.png&quot; rel=&quot;nofollow&quot; target=&quot;_NEW&quot;&gt;http://i.imgur.com/lJOgAo2.png&lt;/a&gt; &lt;a href=&quot;\nhttp://cdn.koimoi.com/wp-content/new-galleries/2013/07/Mahie-Gill-Sanjay-Dutt-Ram-Charan-Teja-Priyanka-Chopra-Prakash-Raj-and-Atul-Kulkarni-in-Zanjeer-2013-Movie-Poster.jpg&quot; rel=&quot;nofollow&quot; target=&quot;_NEW&quot;&gt;\nhttp://cdn.koimoi.com/wp-content/new-galleries/2013/07/Mahie-Gill-Sanjay-Dutt-Ram-Charan-Teja-Priyanka-Chopra-Prakash-Raj-and-Atul-Kulkarni-in-Zanjeer-2013-Movie-Poster.jpg&lt;/a&gt; &lt;a href=&quot;\nhttp://t1.someimage.com/DNGytMC.jpg&quot; rel=&quot;nofollow&quot; target=&quot;_NEW&quot;&gt;\nhttp://t1.someimage.com/DNGytMC.jpg&lt;/a&gt; &lt;a href=&quot;\nhttp://t1.someimage.com/wmUkawB.jpg&quot; rel=&quot;nofollow&quot; target=&quot;_NEW&quot;&gt;\nhttp://t1.someimage.com/wmUkawB.jpg&lt;/a&gt; &lt;a href=&quot;\nhttp://t1.someimage.com/vSodpKp.jpg&quot; rel=&quot;nofollow&quot; target=&quot;_NEW&quot;&gt;\nhttp://t1.someimage.com/vSodpKp.jpg&lt;/a&gt; &lt;a href=&quot;\nhttp://t1.someimage.com/bryrA93.jpg&quot; rel=&quot;nofollow&quot; target=&quot;_NEW&quot;&gt;\nhttp://t1.someimage.com/bryrA93.jpg&lt;/a&gt; &lt;a href=&quot;\nhttp://t1.someimage.com/BDZ682S.jpg&quot; rel=&quot;nofollow&quot; target=&quot;_NEW&quot;&gt;\nhttp://t1.someimage.com/BDZ682S.jpg&lt;/a&gt;\n\nMedia Info - \nGeneral\nComplete name : Zanjeer (2013) 1-3 New DVDScr Rip - x264 - AC3 5.1 (Line Audio) - Team IcTv.mkv\nFormat : Matroska\nFormat version : Version 2\nFile size : 1.46 GiB\nDuration : 2h 10mn\nOverall bit rate : 1 601 Kbps\nEncoded date : UTC 2013-09-08 17:27:02\nWriting application : mkvmerge v6.2.0 ('Promised Land') built on Apr 28 2013 12:22:01\nWriting library : libebml v1.3.0 + libmatroska v1.4.0\n\nVideo\nFormat : AVC\nFormat/Info : Advanced Video Codec\nFormat profile : &lt;a class=&quot;__cf_email__&quot; href=&quot;/cdn-cgi/l/email-protection&quot; data-cfemail=&quot;fcb4959b94bcb0cfd2cc&quot;&gt;[email&amp;#160;protected]&lt;/a&gt;&lt;script cf-hash='f9e31' type=&quot;text/javascript&quot;&gt;\n/* &lt;![CDATA[ */!function(){try{var t=&quot;currentScript&quot;in document?document.currentScript:function(){for(var t=document.getElementsByTagName(&quot;script&quot;),e=t.length;e--;)if(t[e].getAttribute(&quot;cf-hash&quot;))return t[e]}();if(t&amp;&amp;t.previousSibling){var e,r,n,i,c=t.previousSibling,a=c.getAttribute(&quot;data-cfemail&quot;);if(a){for(e=&quot;&quot;,r=parseInt(a.substr(0,2),16),n=2;a.length-n;n+=2)i=parseInt(a.substr(n,2),16)^r,e+=String.fromCharCode(i);e=document.createTextNode(e),c.parentNode.replaceChild(e,c)}}}catch(u){}}();/* ]]&gt; */&lt;/script&gt;\nFormat settings, CABAC : Yes\nFormat settings, ReFrames : 4 frames\nCodec ID : V_MPEG4/ISO/AVC\nDuration : 2h 10mn\nBit rate : 1 279 Kbps\nWidth : 720 pixels\nHeight : 304 pixels\nDisplay aspect ratio : 2.35:1\nFrame rate : 23.976 fps\nColor space : YUV\nChroma subsampling : 4:2:0\nBit depth : 8 bits\nScan type : Progressive\nBits/(Pixel*Frame) : 0.244\nStream size : 1.14 GiB (78%)\nTitle : IcTv\nWriting library : x264 core 133 r2334 a3ac64b\nLanguage : English\nDefault : Yes\nForced : No\n\nAudio\nFormat : AC-3\nFormat/Info : Audio Coding 3\nMode extension : CM (complete main)\nCodec ID : A_AC3\nDuration : 2h 10mn\nBit rate mode : Constant\nBit rate : 320 Kbps\nChannel(s) : 6 channels\nChannel positions : Front: L C R, Side: L R, LFE\nSampling rate : 48.0 KHz\nBit depth : 16 bits\nCompression mode : Lossy\nStream size : 298 MiB (20%)\nTitle : Hell\nLanguage : Hindi\nDefault : Yes\nForced : No\n\nRipper : Hell\n\nSample -\nSeeding 24x7... Extreme Seeding...\n\n\nEnjoy!\n","torrent":{"xt":"urn:btih:07fbf93fbe2e00cf2716dba1bd5c5bfe44e4dbdf","amp;dn":"Zanjeer+2013+1-3+DVDScrRip+x264+AC3+5.1+%28Line+Audio%29+-+Hindi","amp;tr":["udp%3A%2F%2Ftracker.openbittorrent.com%3A80","udp%3A%2F%2Fopen.demonii.com%3A1337","udp%3A%2F%2Ftracker.coppersurfer.tk%3A6969","udp%3A%2F%2Fexodus.desync.com%3A6969"],"infoHash":"07fbf93fbe2e00cf2716dba1bd5c5bfe44e4dbdf","infoHashBuffer":{"type":"Buffer","data":[7,251,249,63,190,46,0,207,39,22,219,161,189,92,91,254,68,228,219,223]},"announce":[],"urlList":[]}}